<svg xmlns="http://www.w3.org/2000/svg" xmlns:xlink="http://www.w3.org/1999/xlink" viewBox="0 0 425.97 83.34"><defs><style>.cls-1{isolation:isolate;}.cls-2{fill:#353535;opacity:0.3;}.cls-2,.cls-4,.cls-5,.cls-8,.cls-9{mix-blend-mode:multiply;}.cls-3,.cls-5{fill:#006fc6;}.cls-4{fill:#97974d;}.cls-4,.cls-5{opacity:0.5;}.cls-6{fill:#00a9ff;}.cls-7{fill:#003260;}.cls-8{fill:url(#linear-gradient);}.cls-9{fill:url(#linear-gradient-2);}.cls-10{fill:#f7ffff;}</style><linearGradient id="linear-gradient" x1="91.53" y1="45.28" x2="40.5" y2="45.28" gradientUnits="userSpaceOnUse"><stop offset="0" stop-color="#653a00"/><stop offset="0.22" stop-color="#8e6e43"/><stop offset="0.5" stop-color="#beab93"/><stop offset="0.74" stop-color="#e1d9cd"/><stop offset="0.91" stop-color="#f7f4f1"/><stop offset="1" stop-color="#fff"/></linearGradient><linearGradient id="linear-gradient-2" x1="4226.14" y1="45.28" x2="4175.11" y2="45.28" gradientTransform="matrix(-1, 0, 0, 1, 4560.58, 0)" xlink:href="#linear-gradient"/></defs><g class="cls-1"><g id="Layer_2" data-name="Layer 2"><g id="Layer_1-2" data-name="Layer 1"><polygon class="cls-2" points="425.97 14.52 330.54 14.52 330.54 6.6 95.34 6.6 95.34 14.52 0 14.52 15.25 48.93 0 83.34 95.34 83.34 95.34 75.42 330.54 75.42 330.54 83.34 425.97 83.34 410.72 48.93 425.97 14.52"/><polygon class="cls-3" points="422.3 10.85 407.06 45.26 422.3 79.67 334.24 79.67 334.24 10.85 422.3 10.85"/><polygon class="cls-4" points="422.3 10.85 415.27 10.85 402.18 40.39 417.43 74.8 334.24 74.8 334.24 79.67 422.3 79.67 407.06 45.26 422.3 10.85"/><polygon class="cls-5" points="403.97 21.7 393.52 45.26 403.97 68.82 334.24 68.82 334.24 21.7 403.97 21.7"/><polygon class="cls-6" points="407.38 71.28 334.98 71.28 334.98 69.52 404.67 69.52 394.25 46 404.67 22.47 334.98 22.47 334.98 20.7 407.38 20.7 396.17 46 407.38 71.28"/><polygon class="cls-7" points="406.65 70.55 334.24 70.55 334.24 68.79 403.94 68.79 393.51 45.26 403.94 21.73 334.24 21.73 334.24 19.97 406.65 19.97 395.44 45.26 406.65 70.55"/><polygon class="cls-3" points="3.67 10.85 18.92 45.26 3.67 79.67 91.73 79.67 91.73 10.85 3.67 10.85"/><polygon class="cls-4" points="3.67 10.85 10.7 10.85 23.79 40.39 8.54 74.8 91.73 74.8 91.73 79.67 3.67 79.67 18.92 45.26 3.67 10.85"/><polygon class="cls-5" points="22 21.7 32.45 45.26 22 68.82 91.73 68.82 91.73 21.7 22 21.7"/><polygon class="cls-6" points="20.02 71.25 92.42 71.25 92.42 69.49 22.73 69.49 33.15 45.96 22.73 22.43 92.42 22.43 92.42 20.67 20.02 20.67 31.23 45.96 20.02 71.25"/><polygon class="cls-7" points="19.32 70.55 91.73 70.55 91.73 68.79 22.03 68.79 32.45 45.26 22.03 21.73 91.73 21.73 91.73 19.97 19.32 19.97 30.53 45.26 19.32 70.55"/><rect class="cls-8" x="39.92" y="10.88" width="51.81" height="68.79"/><rect class="cls-9" x="334.24" y="10.88" width="51.81" height="68.79"/><rect class="cls-3" x="67.48" width="291" height="68.82"/><rect class="cls-4" x="67.48" y="63.74" width="291" height="5.08"/><rect class="cls-5" x="67.48" y="10.85" width="291" height="47.12"/><rect class="cls-6" x="67.48" y="9.61" width="291" height="1.76"/><rect class="cls-7" x="67.48" y="9.12" width="291" height="1.76"/><rect class="cls-6" x="67.48" y="58.47" width="291" height="1.76"/><rect class="cls-7" x="67.48" y="57.94" width="291" height="1.76"/><polygon class="cls-10" points="67.48 68.82 91.73 79.67 91.73 68.82 67.48 68.82"/><polygon class="cls-10" points="358.49 68.82 334.24 79.67 334.24 68.82 358.49 68.82"/></g></g></g></svg>